HIERARCHY
ROOT Hips
{
	OFFSET 0.00000 0.00000 0.00000
	CHANNELS 6 Xposition Yposition Zposition Zrotation Yrotation Xrotation 
	JOINT LHipJoint
	{
		OFFSET 0 0 0
		CHANNELS 3 Zrotation Yrotation Xrotation
		JOINT LeftUpLeg
		{
			OFFSET 1.34019 -1.87553 0.90315
			CHANNELS 3 Zrotation Yrotation Xrotation
			JOINT LeftLeg
			{
				OFFSET 2.55316 -7.01474 0.00000
				CHANNELS 3 Zrotation Yrotation Xrotation
				JOINT LeftFoot
				{
					OFFSET 2.64657 -7.27139 0.00000
					CHANNELS 3 Zrotation Yrotation Xrotation
					JOINT LeftToeBase
					{
						OFFSET 0.24207 -0.66507 2.14489
						CHANNELS 3 Zrotation Yrotation Xrotation
						End Site
						{
							OFFSET 0.00000 -0.00000 1.12451
						}
					}
				}
			}
		}
	}
	JOINT RHipJoint
	{
		OFFSET 0 0 0
		CHANNELS 3 Zrotation Yrotation Xrotation
		JOINT RightUpLeg
		{
			OFFSET -1.28320 -1.87553 0.90315
			CHANNELS 3 Zrotation Yrotation Xrotation
			JOINT RightLeg
			{
				OFFSET -2.60484 -7.15674 0.00000
				CHANNELS 3 Zrotation Yrotation Xrotation
				JOINT RightFoot
				{
					OFFSET -2.60296 -7.15159 0.00000
					CHANNELS 3 Zrotation Yrotation Xrotation
					JOINT RightToeBase
					{
						OFFSET -0.31082 -0.85398 2.28998
						CHANNELS 3 Zrotation Yrotation Xrotation
						End Site
						{
							OFFSET -0.00000 -0.00000 1.21611
						}
					}
				}
			}
		}
	}
	JOINT LowerBack
	{
		OFFSET 0 0 0
		CHANNELS 3 Zrotation Yrotation Xrotation
		JOINT Spine
		{
			OFFSET -0.00160 2.05581 -0.15156
			CHANNELS 3 Zrotation Yrotation Xrotation
			JOINT Spine1
			{
				OFFSET 0.04594 2.06326 -0.01617
				CHANNELS 3 Zrotation Yrotation Xrotation
				JOINT Neck
				{
					OFFSET 0 0 0
					CHANNELS 3 Zrotation Yrotation Xrotation
					JOINT Neck1
					{
						OFFSET 0.03753 1.73883 0.26751
						CHANNELS 3 Zrotation Yrotation Xrotation
						JOINT Head
						{
							OFFSET -0.09795 1.76129 -0.31794
							CHANNELS 3 Zrotation Yrotation Xrotation
							End Site
							{
								OFFSET -0.03611 1.79987 -0.13846
							}
						}
					}
				}
				JOINT LeftShoulder
				{
					OFFSET 0 0 0
					CHANNELS 3 Zrotation Yrotation Xrotation
					JOINT LeftArm
					{
						OFFSET 3.30667 1.29205 -0.22445
						CHANNELS 3 Zrotation Yrotation Xrotation
						JOINT LeftForeArm
						{
							OFFSET 4.92785 -0.00000 -0.00000
							CHANNELS 3 Zrotation Yrotation Xrotation
							JOINT LeftHand
							{
								OFFSET 3.44052 -0.00000 0.00000
								CHANNELS 3 Zrotation Yrotation Xrotation
								JOINT LeftFingerBase
								{
									OFFSET 0 0 0
									CHANNELS 3 Zrotation Yrotation Xrotation
									JOINT LeftHandIndex1
									{
										OFFSET 0.65433 -0.00000 0.00000
										CHANNELS 3 Zrotation Yrotation Xrotation
										End Site
										{
											OFFSET 0.52753 -0.00000 0.00000
										}
									}
								}
								JOINT LThumb
								{
									OFFSET 0 0 0
									CHANNELS 3 Zrotation Yrotation Xrotation
									End Site
									{
										OFFSET 0.53559 -0.00000 0.53559
									}
								}
							}
						}
					}
				}
				JOINT RightShoulder
				{
					OFFSET 0 0 0
					CHANNELS 3 Zrotation Yrotation Xrotation
					JOINT RightArm
					{
						OFFSET -3.20032 1.49783 -0.27688
						CHANNELS 3 Zrotation Yrotation Xrotation
						JOINT RightForeArm
						{
							OFFSET -5.09181 -0.00000 -0.00000
							CHANNELS 3 Zrotation Yrotation Xrotation
							JOINT RightHand
							{
								OFFSET -3.49865 -0.00000 -0.00000
								CHANNELS 3 Zrotation Yrotation Xrotation
								JOINT RightFingerBase
								{
									OFFSET 0 0 0
									CHANNELS 3 Zrotation Yrotation Xrotation
									JOINT RightHandIndex1
									{
										OFFSET -0.66641 -0.00000 0.00000
										CHANNELS 3 Zrotation Yrotation Xrotation
										End Site
										{
											OFFSET -0.53728 -0.00000 0.00000
										}
									}
								}
								JOINT RThumb
								{
									OFFSET 0 0 0
									CHANNELS 3 Zrotation Yrotation Xrotation
									End Site
									{
										OFFSET -0.54548 -0.00000 0.54548
									}
								}
							}
						}
					}
				}
			}
		}
	}
}
MOTION
Frames: 12
Frame Time: .0083333
0.4043 17.9797 -30.8383 0 0 0 0 0 0 -21 0 0 0 0 0 0 0 0 0 0 0 0 0 0 21 0 0 0 0 0 0 0 0 0 0 0 0 0 0 0 0 0 0 0 0 0 0 -16 0 0 21 0 0 11 0 0 0 -8 0 0 0 0 0 0 0 0 0 0 0 0 0 0 0 0 0 0 0 0 8 0 0 0 0 0 0 0 0 0 0 0 0 0 0 0 0 0
0.4043 17.9797 -30.8383 -2.2299 1.3909 2.3364 0.0000 0.0000 0.0000 -17.0353 -3.5943 -6.6330 1.7470 8.3178 23.6837 0.2170 8.4274 -15.5413 0.2483 -3.2067 -8.8546 0.0000 0.0000 0.0000 19.3924 1.6955 -8.2689 -2.1299 -9.1316 26.2077 0.2716 -15.6635 -19.2193 -0.0251 1.0236 -2.8139 -0.5119 -0.2156 2.3027 2.1595 -0.2450 -1.7581 2.5223 -0.0861 -3.0872 7.0739 -1.5062 -20.5697 -6.5642 -2.7199 21.8549 -3.9164 -1.4681 10.1678 0.0000 0.0000 0.0000 -88.2216 2.4880 31.0911 12.4871 -20.5311 -2.2702 -0.0000 0.0000 -4.9035 13.5620 0.2459 0.0593 -7.1250 0.0000 -0.0000 -10.2361 30.1480 3.7644 0.0000 0.0000 0.0000 88.3244 -1.2634 13.2814 -11.5965 19.1967 -1.9676 0.0000 0.0000 0.1685 -16.2790 -3.3982 0.9917 7.1250 -0.0000 -0.0000 8.4265 -33.4325 2.4118
0.4070 17.9739 -30.8419 -2.2258 1.4208 1.9142 0.0000 0.0000 0.0000 -17.1084 -3.6685 -6.1402 1.7458 8.3153 23.6759 0.2055 8.6108 -15.5852 0.2470 -3.1981 -8.8307 0.0000 0.0000 0.0000 19.3803 1.5322 -7.8167 -2.1227 -9.1172 26.1625 0.2720 -15.6730 -19.2304 -0.0251 1.0226 -2.8110 -0.4960 -0.2274 2.7674 2.1518 -0.2588 -1.6649 2.5091 -0.0927 -3.2528 7.0705 -1.4556 -20.4289 -6.5309 -2.6498 21.6824 -3.8844 -1.4335 10.0862 -0.0000 -0.0000 0.0000 -88.2290 2.5545 31.0607 12.5269 -20.5902 -2.2842 -0.0000 0.0000 -4.8841 13.6237 0.3310 0.0802 -7.1250 0.0000 -0.0000 -10.1970 30.2351 3.7281 -0.0000 -0.0000 0.0000 88.3137 -1.2935 13.3430 -11.6094 19.2163 -1.9718 0.0000 0.0000 0.1176 -16.2737 -3.3912 0.9893 7.1250 -0.0000 -0.0000 8.4301 -33.4252 2.4144
0.4096 17.9662 -30.8460 -2.2109 1.4650 1.4929 0.0000 0.0000 0.0000 -17.1876 -3.6456 -5.6404 1.7433 8.3096 23.6583 0.2045 8.6789 -15.6480 0.2439 -3.1778 -8.7741 0.0000 0.0000 0.0000 19.3573 1.3674 -7.3921 -2.1243 -9.1204 26.1726 0.2680 -15.6807 -19.2929 -0.0250 1.0217 -2.8084 -0.4755 -0.2402 3.2096 2.1312 -0.2743 -1.5675 2.4800 -0.1006 -3.4012 7.1191 -1.4149 -20.3708 -6.5342 -2.6043 21.6365 -3.8845 -1.4090 10.0619 0.0000 0.0000 0.0000 -88.1957 2.5452 31.1489 12.4948 -20.5425 -2.2729 -0.0000 0.0000 -4.9791 13.6473 0.2376 0.0577 -7.1250 0.0000 -0.0000 -10.1686 30.1408 3.7407 0.0000 0.0000 0.0000 88.3297 -1.3031 13.3587 -11.6231 19.2370 -1.9764 0.0000 0.0000 0.0624 -16.2782 -3.5426 1.0337 7.1250 -0.0000 -0.0000 8.4439 -33.5813 2.3862
0.4127 17.9742 -30.8354 -2.1884 1.2550 2.0180 0.0000 0.0000 0.0000 -17.1809 -3.6053 -6.1915 1.7415 8.3055 23.6459 0.2026 8.6937 -15.6393 0.2418 -3.1643 -8.7364 0.0000 0.0000 0.0000 19.2998 1.5907 -7.9233 -2.1244 -9.1206 26.1733 0.2603 -15.5562 -19.1812 -0.0263 1.0462 -2.8758 -0.4901 -0.1763 2.5563 2.1229 -0.1920 -1.7028 2.4710 -0.0602 -3.1760 7.1136 -1.4092 -20.4185 -6.5258 -2.5985 21.7284 -3.8844 -1.4047 10.1044 -0.0000 0.0000 0.0000 -88.2028 2.5785 31.1288 12.4888 -20.5337 -2.2708 -0.0000 0.0000 -4.9353 13.5983 0.2472 0.0598 -7.1250 0.0000 -0.0000 -10.2079 30.1499 3.7533 -0.0000 0.0000 0.0000 88.3278 -1.3410 13.3050 -11.5908 19.1882 -1.9657 0.0000 0.0000 0.2307 -16.3388 -3.2735 0.9590 7.1250 -0.0000 -0.0000 8.3640 -33.3062 2.4194
0.4168 17.9755 -30.8296 -2.1780 1.1242 2.1479 0.0000 0.0000 0.0000 -17.2116 -3.5993 -6.2947 1.7402 8.3026 23.6371 0.1976 8.7848 -15.6722 0.2388 -3.1448 -8.6820 0.0000 0.0000 0.0000 19.2574 1.6592 -8.0617 -2.1276 -9.1270 26.1934 0.2510 -15.4615 -19.1406 -0.0268 1.0573 -2.9063 -0.4701 -0.1372 2.3430 2.1121 -0.1402 -1.7314 2.4447 -0.0355 -3.0875 7.1175 -1.4013 -20.4286 -6.5285 -2.5882 21.7548 -3.8858 -1.3996 10.1165 0.0000 0.0000 0.0000 -88.2048 2.5944 31.1251 12.4826 -20.5245 -2.2687 -0.0000 0.0000 -4.9215 13.5940 0.2522 0.0610 -7.1250 0.0000 -0.0000 -10.2118 30.1549 3.7535 0.0000 0.0000 0.0000 88.3247 -1.3597 13.2873 -11.5694 19.1557 -1.9587 0.0000 0.0000 0.3464 -16.3971 -3.1013 0.9121 7.1250 -0.0000 -0.0000 8.2976 -33.1307 2.4355
0.4216 17.9773 -30.8222 -2.1757 0.9629 2.3285 0.0000 0.0000 0.0000 -17.2357 -3.5989 -6.4460 1.7393 8.3005 23.6306 0.1916 8.8944 -15.7147 0.2355 -3.1236 -8.6229 0.0000 0.0000 0.0000 19.2163 1.7464 -8.2492 -2.1295 -9.1309 26.2055 0.2399 -15.3427 -19.0832 -0.0273 1.0666 -2.9320 -0.4325 -0.0888 2.0556 2.1016 -0.0760 -1.7669 2.4083 -0.0050 -2.9649 7.1125 -1.4058 -20.4524 -6.5336 -2.5924 21.8022 -3.8898 -1.4020 10.1376 -0.0000 -0.0000 0.0000 -88.2091 2.6063 31.1122 12.4758 -20.5143 -2.2663 -0.0000 0.0000 -4.8959 13.5893 0.2613 0.0632 -7.1250 0.0000 -0.0000 -10.2163 30.1640 3.7530 -0.0000 -0.0000 0.0000 88.3212 -1.3769 13.2666 -11.5442 19.1175 -1.9504 0.0000 0.0000 0.4879 -16.4596 -2.8984 0.8559 7.1250 -0.0000 -0.0000 8.2250 -32.9234 2.4554
0.4268 17.9791 -30.8143 -2.1790 0.7907 2.5096 0.0000 0.0000 0.0000 -17.2587 -3.6121 -6.5955 1.7393 8.3005 23.6306 0.1846 9.0251 -15.7676 0.2323 -3.1020 -8.5628 0.0000 0.0000 0.0000 19.1770 1.8322 -8.4375 -2.1313 -9.1344 26.2165 0.2281 -15.2134 -19.0180 -0.0278 1.0769 -2.9605 -0.3848 -0.0367 1.7611 2.0930 -0.0066 -1.8017 2.3684 0.0278 -2.8379 7.0999 -1.4161 -20.4610 -6.5371 -2.6020 21.8312 -3.8915 -1.4076 10.1489 -0.0000 -0.0000 0.0000 -88.2189 2.6216 31.0849 12.4709 -20.5070 -2.2645 -0.0000 0.0000 -4.8501 13.5879 0.2758 0.0667 -7.1250 0.0000 -0.0000 -10.2192 30.1786 3.7504 -0.0000 -0.0000 0.0000 88.3143 -1.3995 13.2512 -11.5219 19.0838 -1.9431 0.0000 0.0000 0.6228 -16.5168 -2.7016 0.8008 7.1250 -0.0000 -0.0000 8.1578 -32.7220 2.4750
0.4324 17.9806 -30.8064 -2.1862 0.6149 2.6632 0.0000 0.0000 0.0000 -17.2833 -3.6333 -6.7120 1.7395 8.3010 23.6322 0.1767 9.1725 -15.8303 0.2294 -3.0831 -8.5102 0.0000 0.0000 0.0000 19.1400 1.9089 -8.5972 -2.1328 -9.1373 26.2259 0.2159 -15.0796 -18.9534 -0.0283 1.0862 -2.9859 -0.3278 0.0173 1.4897 2.0840 0.0652 -1.8291 2.3236 0.0618 -2.7161 7.0922 -1.4219 -20.4425 -6.5399 -2.6058 21.8255 -3.8911 -1.4103 10.1431 0.0000 0.0000 0.0000 -88.2288 2.6389 31.0523 12.4664 -20.5004 -2.2630 -0.0000 0.0000 -4.7986 13.5896 0.2830 0.0684 -7.1250 0.0000 -0.0000 -10.2185 30.1859 3.7484 0.0000 0.0000 0.0000 88.3075 -1.4288 13.2481 -11.5088 19.0640 -1.9389 0.0000 0.0000 0.7207 -16.5602 -2.5597 0.7608 7.1250 -0.0000 -0.0000 8.1080 -32.5768 2.4883
0.4377 17.9814 -30.7996 -2.1936 0.4595 2.7652 0.0000 0.0000 0.0000 -17.3124 -3.6651 -6.7717 1.7400 8.3021 23.6356 0.1686 9.3249 -15.8970 0.2274 -3.0696 -8.4726 0.0000 0.0000 0.0000 19.1062 1.9651 -8.7032 -2.1340 -9.1397 26.2333 0.2050 -14.9607 -18.8970 -0.0288 1.0955 -3.0117 -0.2720 0.0657 1.2753 2.0751 0.1297 -1.8515 2.2804 0.0923 -2.6210 7.0838 -1.4280 -20.3780 -6.5365 -2.6085 21.7986 -3.8862 -1.4118 10.1214 0.0000 0.0000 0.0000 -88.2374 2.6726 31.0210 12.4625 -20.4946 -2.2616 -0.0000 0.0000 -4.7525 13.5966 0.2661 0.0644 -7.1250 0.0000 -0.0000 -10.2113 30.1690 3.7498 0.0000 0.0000 0.0000 88.3026 -1.4772 13.2482 -11.5039 19.0565 -1.9373 0.0000 0.0000 0.7834 -16.5808 -2.4670 0.7343 7.1250 -0.0000 -0.0000 8.0817 -32.4817 2.4988
0.4418 17.9823 -30.7946 -2.1980 0.3408 2.8680 0.0000 0.0000 0.0000 -17.3324 -3.6889 -6.8504 1.7408 8.3039 23.6410 0.1629 9.4308 -15.9452 0.2263 -3.0622 -8.4521 0.0000 0.0000 0.0000 19.0781 2.0155 -8.8132 -2.1351 -9.1421 26.2407 0.1975 -14.8712 -18.8472 -0.0293 1.1054 -3.0389 -0.2328 0.1017 1.0768 2.0694 0.1775 -1.8870 2.2508 0.1151 -2.5475 7.0808 -1.4167 -20.2636 -6.5167 -2.5901 21.7297 -3.8708 -1.4013 10.0774 -0.0000 -0.0000 0.0000 -88.2462 2.7247 30.9904 12.4590 -20.4895 -2.2604 -0.0000 0.0000 -4.7119 13.6109 0.2348 0.0568 -7.1250 0.0000 -0.0000 -10.1968 30.1374 3.7522 -0.0000 -0.0000 0.0000 88.2968 -1.5474 13.2621 -11.5102 19.0660 -1.9393 0.0000 0.0000 0.7881 -16.5737 -2.4447 0.7273 7.1250 -0.0000 -0.0000 8.0852 -32.4585 2.5045
0.4452 17.9832 -30.7914 -2.2015 0.2433 2.9525 0.0000 0.0000 0.0000 -17.3493 -3.7102 -6.9198 1.7419 8.3065 23.6490 0.1585 9.5159 -15.9857 0.2254 -3.0560 -8.4346 0.0000 0.0000 0.0000 19.0550 2.0661 -8.9057 -2.1364 -9.1447 26.2489 0.1922 -14.8042 -18.8064 -0.0297 1.1127 -3.0589 -0.1872 0.1560 0.9169 2.0355 0.2495 -1.9370 2.1880 0.1499 -2.5114 7.0076 -1.4880 -20.0534 -6.3883 -2.6863 21.6381 -3.8168 -1.4359 10.0014 0.0000 -0.0000 0.0000 -88.1924 2.8042 31.0607 12.4603 -20.4914 -2.2609 -0.0000 0.0000 -4.7164 13.6258 0.2050 0.0497 -7.1250 0.0000 -0.0000 -10.1820 30.1075 3.7540 0.0000 -0.0000 0.0000 88.3521 -1.6573 13.1837 -11.5213 19.0829 -1.9429 0.0000 0.0000 0.8082 -16.5649 -2.4294 0.7224 7.1250 -0.0000 -0.0000 8.0906 -32.4424 2.5094
